<?xml version="1.0" encoding="utf-8"?>
<!-- Generator: Adobe Illustrator 25.4.1, SVG Export Plug-In . SVG Version: 6.00 Build 0)  -->
<svg version="1.1" id="Layer_1" xmlns="http://www.w3.org/2000/svg" xmlns:xlink="http://www.w3.org/1999/xlink" x="0px" y="0px"
	 viewBox="0 0 1709 314.6" style="enable-background:new 0 0 1709 314.6;" xml:space="preserve">
<style type="text/css">
	.st0{fill:#F28B2E;}
</style>
<path d="M31.9,139.8h74.4v30.3H31.9V220h82.4v30.3H0v-186h112.7v30.3H31.9V139.8z"/>
<path d="M163.9,124.4l31.9,68.5l31.9-68.5h34.3l-66.7,132.3l-66.7-132.3H163.9z"/>
<path d="M394.5,186.8c0,2.4,0,7.2-0.3,12h-94.1c2.4,11.2,15.4,25.5,35.3,25.5c22,0,34.5-12.8,34.5-12.8l15.9,23.9
	c0,0-19.9,18.1-50.5,18.1c-38.3,0-67.8-29.2-67.8-66.1s26.8-66.1,63.2-66.1C365.6,121.2,394.5,148,394.5,186.8z M362.6,175.6
	c-0.5-10.9-10.6-25.5-31.6-25.5c-20.5,0-29.8,14.3-30.8,25.5H362.6z"/>
<path d="M506.9,125.2l-11.2,28.6c0,0-5.8-2.9-15.2-2.9c-19.4,0-28.2,17-28.2,17v82.4h-31.9V124.4h30.3v18.3c0,0,10.9-21.5,34.3-21.5
	C492.5,121.3,499.9,122.7,506.9,125.2z"/>
<path d="M530.3,276.6c0,0,8.5,8.2,16.7,8.2c10.9,0,15.4-3.2,21.5-18.6l5-13l-61.4-128.9h35.3l42.5,92.2l33.2-92.2h34.3l-61.1,154.1
	c-10.9,27.6-28.7,36.1-47.3,36.1c-19.1,0-33.7-13.3-33.7-13.3L530.3,276.6z"/>
<path d="M799.9,187.3c0,36.9-29.8,66.1-67.2,66.1s-67.2-29.2-67.2-66.1c0-37.2,29.8-66.1,67.2-66.1S799.9,150.1,799.9,187.3z
	 M767.5,187.3c0-19.7-13.3-36.4-34.8-36.4s-34.8,16.7-34.8,36.4s13.3,36.4,34.8,36.4S767.5,207,767.5,187.3z"/>
<path d="M939.7,168.7v81.6h-31.9v-73.6c0-18.1-11.2-25.8-25-25.8c-16.5,0-25,16.2-25,16.2v83.1H826V124.4h29.8v18.3
	c0,0,11.2-21.5,37.7-21.5C917.9,121.2,939.7,138.4,939.7,168.7z"/>
<path d="M1092.4,186.8c0,2.4,0,7.2-0.3,12h-94c2.4,11.2,15.4,25.5,35.3,25.5c22,0,34.5-12.8,34.5-12.8l15.9,23.9
	c0,0-19.9,18.1-50.5,18.1c-38.3,0-67.7-29.2-67.7-66.1s26.8-66.1,63.2-66.1C1063.5,121.2,1092.4,148,1092.4,186.8z M1060.5,175.6
	c-0.5-10.9-10.6-25.5-31.6-25.5c-20.5,0-29.8,14.3-30.8,25.5H1060.5z"/>
<path class="st0" d="M1234.8,139.8h74.4v30.3h-74.4V220h82.4v30.3h-114.2v-186h112.7v30.3h-80.8V139.8z"/>
<path class="st0" d="M1457.4,168.2v82.1H1428v-15.9c0,0-13,19.1-41.4,19.1c-23.7,0-45.4-15.4-45.4-42.2c0-24.2,22-41.7,49.4-41.7
	c23.1,0,35.1,9,35.1,9v-7.2c0-16.5-15.9-21.8-27.1-21.8c-18.3,0-37.7,9.3-37.7,9.3l-10.4-26.3c0,0,23.4-11.4,49.7-11.4
	C1436.2,121.2,1457.4,139.5,1457.4,168.2z M1425.6,212.3v-13c0,0-11.4-6.4-28.7-6.4c-9.8,0-23.4,4.2-23.4,17.8
	c0,13.3,13,16.2,22.8,16.2C1415.5,226.9,1425.6,212.3,1425.6,212.3L1425.6,212.3z"/>
<path class="st0" d="M1481.9,124.4h24.7V86.9h31.9v37.5h38v28.7h-38v50.8c0,15.4,8,19.9,16.5,19.9c7.2,0,13.3-4.5,13.3-4.5l11.7,26
	c0,0-12,8.2-30.3,8.2c-24.4,0-43-17.8-43-44.6v-55.8h-24.7V124.4z"/>
<path class="st0" d="M1615,207.5c0,0,16.7,18.1,38,18.1c13,0,23.9-3.7,23.9-11.4c0-8.2-5.8-9.8-25-13.8c-25-5.3-46.8-15.9-46.8-39.9
	c0-19.7,19.7-39.3,54.2-39.3c28.4,0,47.3,15.4,47.3,15.4l-16,23.4c0,0-14.3-10.9-31.3-10.9c-12,0-22.8,4.2-22.8,12
	s8.5,9.6,29.8,14.1c25,5.3,42.8,13.5,42.8,39.6c0,21.5-22.8,38.8-55,38.8c-36.9,0-56.8-22.9-56.8-22.9L1615,207.5z"/>
</svg>
