<svg id="Layer_1" data-name="Layer 1" xmlns="http://www.w3.org/2000/svg" viewBox="0 0 1024 1024"><defs><style>.cls-1{fill:#77bd20;}.cls-2{fill:#fff;}.cls-3{fill:#78bd20;}</style></defs><path class="cls-1" d="M1023.91,512.5q0,253.46.09,506.91c0,3.75-.84,4.59-4.59,4.59q-507.4-.15-1014.82,0c-3.75,0-4.59-.84-4.59-4.59Q.15,512,0,4.59C0,.84.84,0,4.59,0Q512,.15,1019.41,0c3.75,0,4.59.84,4.59,4.59Q1023.84,258.54,1023.91,512.5Z" transform="translate(0)"/><path class="cls-2" d="M832,605H777l-8-26H704l-8,26-52,0,14-41c-6,9-8.77,13.06-12.61,17-15.22,15.88-33,23.33-54.39,24-24.14.7-78,0-78,0V563s-1.58,2.86-1.85,3.59c-8.43,22.8-25.95,34.56-48.74,39.26-30.36,6.27-58.14-1.81-84.53-16.48-1.09-.6-2.2-1.17-3.94-2.09l6,17.69L326,605l-8-26H252l-8,26H192l62-183h67s46.9,145.54,47.48,146.94C373.08,559.28,384,536,384,536c13.32,8.13,31.29,18.13,46.71,21.45,6.87,1.48,13.78,2.33,20.61-.31,3.57-1.37,6.64-3.22,7.08-7.5a10.14,10.14,0,0,0-4.94-10.16c-9.89-6.38-21.23-9.07-32.25-12.52-9.64-3-19.24-6-28.06-11.12-19.64-11.39-28.12-28.62-26-50.89,1.9-19.7,13.34-33,30.94-40.69,27.65-12.09,55.57-10.41,83.25.39,4.92,1.93,9.6,4.49,14.46,6.6,1.57.68,4.16,1.75,4.16,1.75s-1.32,2.54-1.9,3.91c-4.51,10.66-8.82,21.42-12.79,32.29A17.91,17.91,0,0,1,484,472a16.58,16.58,0,0,1-3.59-1.11c-12.23-6.5-25-11.34-39-12-3.29-.17-6.62-.26-9.84,1-6.83,2.73-8.17,8.42-3,13.56,3.36,3.34,7.55,5.32,12,6.88C452.67,484.6,465.2,487.8,477,493c13.16,5.81,25.07,13.12,31.53,26.77,1.48,3.12,3.11,7.72,4.44,11.21V422s1.35,0,3,0c24.82.31,49.83-.73,74.63.12,38.12,1.31,66.46,24.52,76.18,61.48a102.32,102.32,0,0,1,3.26,36.55c-.21,2.1-.07,2.85-1.07,10.85,3.46-10.24,8.55-24.82,12-35.06,8-23.47,25-73.94,25-73.94h66Z" transform="translate(0)"/><path class="cls-1" d="M286,471c6.69,22.54,12.58,43.38,19,65H266C272.5,514.48,279.15,493.68,286,471Z" transform="translate(0)"/><polygon class="cls-1" points="736.6 471.88 755 536 718 536 736.6 471.88"/><path class="cls-3" d="M611.2,492.87C607.45,479.5,598.87,471.2,585,469c-5.15-.21-20-1-20-1s0,3,0,5c.21,24.15,0,48.3,0,72.45,0,4.49,0,12.55,0,12.55s7.92.06,13-.2h0c14.54.15,26.89-8,31.91-21.57C615.2,522,615.3,507.45,611.2,492.87Z" transform="translate(0)"/></svg>