<svg id="Layer_1" data-name="Layer 1" xmlns="http://www.w3.org/2000/svg" viewBox="0 0 1024 1024"><defs><style>.cls-1{fill:#fff;}.cls-2{fill:#f0b61c;}.cls-3{fill:#068944;}</style></defs><rect class="cls-1" width="1024" height="1024"/><path class="cls-2" d="M383,612.15c1.11,1.73.57,3.61.58,5.37,0,23.49.09,47-.05,70.48,0,3.67.65,5.16,4.83,5.15,44.65-.18,89.3,0,134-.23,23.29-.13,46.13-3.31,67.75-12.63,31.8-13.7,49.06-38.12,52.84-72.28,2.5-22.66.33-44.6-11.3-64.77-9.75-16.91-24.45-28.85-40.61-39.14-22.66-14.43-47.11-25.45-71.2-37.16-10.77-5.23-21.65-10.29-31.75-16.79-3.94-2.53-7.76-5.21-10.56-9-7.23-9.91-1.44-23,10.75-24.22a93.56,93.56,0,0,1,9.47-.5q111,0,221.92-.08a18,18,0,0,1,10.26,3.05c36.52,23.43,66.94,52.67,87,91.66a196.5,196.5,0,0,1,22.15,82.21c2.9,65.77-17.76,123.56-60,173.54-25,29.6-57.09,49.69-92.93,63.86-31,12.26-63.24,19.19-96.37,22.49-20.09,2-40.22,2.4-60.37,2.44-46,.1-92,0-137.95.05-8.89,0-7.79-1.16-7.81,7.56q-.08,34,0,68v5.3c-2.07.57-2.84-.78-3.76-1.54q-95.52-79-191-157.9c-3.38-2.79-1.74-3.85.53-5.71q81.12-67,162.19-134,13.48-11.13,27-22.25C379.88,613.93,381,612.36,383,612.15Z"/><path class="cls-3" d="M630,88l33.77,28Q743.89,182.15,824,248.37c2.89,2.38,3.38,3.44.17,6.09Q728,333.81,632,413.36a13,13,0,0,1-1.37.85c-1.07-1.36-.57-2.89-.58-4.26q0-36.48,0-73c0-2.85-.17-4.45-3.87-4.42-47.32.36-94.65-.74-142,.62-27.55.8-53.35,8-74.91,26.17-25.94,21.93-34.66,50.54-31.85,83.63,2.83,33.36,21,56.57,47.89,74.36,25.9,17.14,54.13,29.84,81.86,43.53,7.74,3.83,15.41,7.82,23,11.86a42.8,42.8,0,0,1,10.1,7.27c5.41,5.34,6.92,11.75,4.38,18.8s-8.33,9.59-15.24,10.19c-3,.25-6,.13-9,.13q-112.23,0-224.46.08a22.38,22.38,0,0,1-12.58-3.6c-56-35.25-90.05-85.46-99-151-8.29-60.87,3-118.38,37.47-170.21,22.26-33.47,52.19-58.51,87.59-77.07,39.76-20.84,82.42-31.58,127-35.38,17.46-1.49,34.94-1.71,52.44-1.7,45.32,0,90.64-.06,136,.11,4.18,0,5.19-1,5.15-5.19C629.92,139.87,630,114.54,630,88Z"/></svg>