<svg id="Layer_1" data-name="Layer 1" xmlns="http://www.w3.org/2000/svg" viewBox="0 0 1024 1024"><defs><style>.cls-1{fill:#fefefe;}.cls-2{fill:#e0212c;}.cls-3{fill:#fcfcfc;}.cls-4{fill:#fdfdfd;}.cls-5{fill:#fbfbfb;}.cls-6{fill:#f6f6f6;}</style></defs><rect class="cls-1" width="1024" height="1024"/><path class="cls-2" d="M1023.91,512q0,253.71.09,507.41c0,3.75-.84,4.59-4.59,4.59q-507.4-.15-1014.82,0c-3.75,0-4.59-.84-4.59-4.59Q.15,512,0,4.59C0,.84.84,0,4.59,0Q512,.15,1019.41,0c3.75,0,4.59.84,4.59,4.59Q1023.84,258.3,1023.91,512Z" transform="translate(0)"/><path class="cls-1" d="M512.05,134.07H860.48c19.49,0,30.84,12.53,29.26,31.94-3.38,41.67-6.62,83.34-10,125q-5.28,66-10.62,132c-3.17,40-6.2,80-9.37,120-3.5,44-7.13,88-10.62,132-3.18,40-6.21,80-9.37,120q-2.8,35.36-5.8,70.7a26.54,26.54,0,0,1-26,24.21c-1.16,0-2.33,0-3.5,0H219.62c-18,0-28.31-9.27-29.76-27.19Q184.31,794,178.92,725.29q-5.28-66-10.61-132c-3.18-40-6.21-80-9.39-120-3.49-44-7.11-88-10.61-132-3.17-40-6.22-80-9.37-120-1.47-18.59-2.91-37.19-4.61-55.76-1.68-18.25,10-31.46,28.29-31.46Z" transform="translate(0)"/><path d="M552.54,675a168.16,168.16,0,0,1,25,1c7.92,1,10.44,3.91,10.24,11.79s-.2,15.66-.47,23.48-1.94,9.34-9.67,8.75c-12.78-1-25.53-2.49-38.39-2-9,.36-8.82.28-6.56,9,8.92,34.29,11.68,69.17,9.35,104.46-.49,7.53-1,7.58-8.53,7.41-5.06-.11-9.92,1-14.75,2.21-5.5,1.4-7.27-.06-7-5.77,1.06-24.64,1.32-49.29,1-74,0-.71.43-1.66-1.08-2.4a314.06,314.06,0,0,1-10.56,30.29C496,802.09,490.72,814.8,485,827.32c-1.94,4.22-4.28,5.28-8.5,2.81-5.74-3.36-11.75-6.21-18.57-6.77-3.49-.29-4.06-2.07-2.41-5.06C472.16,787.93,484,755.43,497,723.46c1.24-3.06,1.55-4.2-2.77-4-16.81.81-33.63,1.17-50.45,1.5-5,.1-8.47-2.94-8.55-7.89-.16-9.64-.63-19.3.46-29,.43-3.82,2.27-5.49,5.81-6.27,5.6-1.23,11.25-1.22,16.9-1.22a101.78,101.78,0,0,0,15.8-.75c-6.09-4.54-11.58-8.71-17.16-12.76-13.91-10.1-27.44-20.6-38.12-34.3-11-14.15-19-29.6-20.8-47.78a11.47,11.47,0,0,0-1.24-3.73,103.45,103.45,0,0,1-10.71-41.72c-.12-3.6-1.13-5-5-4.63-7,.72-12.13-2.41-15.59-8.54-4.91-8.68-7.11-18.19-9-27.84-3.59-18.3-10.48-35.69-15-53.74-2.37-9.55-4.37-19.13-2.66-29.1,1-6,3.22-11,9.67-12.5,3.46-.82,1.45-2.78,1.09-4.11-5.17-18.74-9.73-37.64-13.89-56.62-2-9.24.08-17.18,8.58-22.59a30.74,30.74,0,0,0,3.07-2.55c5.36-4.53,7.4-9.77,4.9-16.84a49.52,49.52,0,0,0-7.57-14.48c-2.88-3.65-2.47-7-.3-10.54,4.26-7,10.79-9.63,18.65-9.19,5.84.32,11.65.87,18-2.12a43.41,43.41,0,0,1-11.53-8.69,28.51,28.51,0,0,1-2.37-2.56c-2.2-3-6.39-6-4.85-9.69,1.21-2.92,6-1.59,9.18-2,13.19-1.67,24.86-6.06,33.05-17.21,1.77-2.42,3.74-5,4.07-7.92.66-5.88,4.38-8.28,9.26-10.49,22.08-10,44.92-17.54,68.94-20.77,50.53-6.8,96.28,4.37,135.39,38.08,30.61,26.39,47.64,60.49,54.69,99.9a86.22,86.22,0,0,1,1.73,12.85,14.25,14.25,0,0,0,5.86,11.61c4.67,3.39,4.76,7.54,3.93,12.35-1.71,9.86-5.09,19.25-8.11,28.75-.61,1.9-1.19,3.8-1.75,5.72-.81,2.7-2.25,5.42-2.21,8.12.05,3.33,4.08,3.4,6.1,5.24a17,17,0,0,1,5.59,12.36c.56,11.65-2.33,22.79-5.1,33.92-5.07,20.3-10.13,40.62-17,60.42a109.34,109.34,0,0,1-4.56,10.49c-3.31,7.13-9.08,10.48-16.78,10.2-3.81-.14-4.9,1.28-4.86,4.9.26,28.54-9.16,54.49-21.75,79.52-3.17,6.29-7.79,11.6-12.73,16.58-15.3,15.38-31.47,29.73-50.06,41.11C554.34,673.59,553.46,674.3,552.54,675Z" transform="translate(0)"/><path class="cls-2" d="M734.59,431.48q0-135.94-.12-271.91c0-4.66,1.32-5.65,5.76-5.63,38,.18,76,.1,114,.11,10.84,0,15.86,5.55,15,16.24q-5.25,66.48-10.41,133c-3.5,44-7.12,88-10.62,132-2.84,35.68-5.53,71.38-8.36,107.07q-4.76,59.75-9.63,119.5c-1.15,14.44-2.34,28.88-3.21,43.33-.22,3.65-1.26,4.76-5,4.74-27.15-.16-54.31-.21-81.47,0-4.77,0-6.08-1.09-6.07-6Q734.71,567.69,734.59,431.48Z" transform="translate(0)"/><path class="cls-2" d="M289.41,431.74q0,135.91.12,271.84c0,5-1.15,6.36-6.26,6.3-26.82-.28-53.64-.21-80.46,0-3.91,0-5.42-.81-5.74-5.06-3.81-50-7.86-99.9-11.8-149.86-3.48-44.14-6.85-88.29-10.36-132.43-3.82-48.13-7.78-96.24-11.6-144.37q-4.29-54-8.39-108c-.82-10.89,4.17-16,15.22-16,38,0,76,.08,113.94-.12,4.4,0,5.45,1.07,5.44,5.46Q289.31,295.56,289.41,431.74Z" transform="translate(0)"/><path class="cls-1" d="M405.85,250.27c1.57-5,4.77-7.81,8.19-10.36,11.23-8.4,23-15.83,36.63-19.81,2.22-.64,4.43-1.47,4.06-4.15s-3-2.37-4.82-2.59c-2.14-.26-4.33-.08-6.49-.15-.95,0-2.13.26-2.63-.89-.58-1.35.44-2.21,1.32-2.93,4.32-3.56,9.45-5.63,14.71-7.13,59.91-17,113.88-5.71,161.42,34.63,22.78,19.33,34.07,45,38.68,74a201.83,201.83,0,0,1,1,55.76c-.36,3-.14,7.61-3.64,7.88-2.88.23-2.65-4.36-3.41-6.92-5.48-18.3-10.51-36.76-20.23-53.43-1.57-2.69-2.63-7.77-6.18-6.74s-.67,5.8-1.37,8.83a2.69,2.69,0,0,0,0,.49c-1.07,12.8.52,24.38,8.67,35.54,6.93,9.5,8.41,21.84,9.39,33.73.3,3.69-1,4.79-4.49,4.14-24.31-4.49-48.81-2.31-73.26-2.13-13.29.1-25.19,4-35.35,12.76-3.7,3.17-7.45,5-12.69,3.48a19,19,0,0,0-11.82.51,9.4,9.4,0,0,1-10.18-2.16c-12.06-11.21-26.65-14.9-42.69-14.94-18.49,0-37-.52-55.45.51-2.65.15-3.37-.38-3.37-3.08,0-9.67,3.22-15.34,11.91-18.7,4.06-1.57,5.5-4.28,6.23-8.09,2.61-13.53,4.82-27.16,9.95-40.09a87.53,87.53,0,0,1,16.15-26.14c12.59-14.18,28.32-18.33,46.51-15.64,8.94,1.32,17.66,3.31,25.61,7.76,3.46,1.94,6,1.27,8.89-1.3,10.17-9.1,11.32-7.11.52-17.61-27.79-27-60.15-33.53-96.56-20.86C416.13,246.14,411.29,248.17,405.85,250.27Z" transform="translate(0)"/><path class="cls-1" d="M645.8,428.26c-.24,4.33-.5,8.65-.7,13-.06,1.31-.29,2.83,1,3.67,1.57,1,2.88-.16,4.06-1,4.86-3.38,8.75-7.15,6.91-14a15.92,15.92,0,0,1,1.6-11.62c1.25-2.42,2.25-4.92,5.77-4.29s6.41,1.7,7.61,5.45.43,7.37-.31,10.88c-4.87,23.09-11.15,45.81-17.93,68.4a33.91,33.91,0,0,1-2.38,5.47c-3.45,6.78-5.11,7.48-12.53,5.06a4.28,4.28,0,0,0-5.53,1.93c-4.58,7-8.26,13.85-8.52,22.85-.64,22.69-6,44.46-17,64.45-10.94,19.74-26.61,34.26-48.32,41.72-4.91,1.69-9,1.58-12.53-2.71-.79-1-1.68-2.49-3.18-1.9s-1.82,2.35-1.56,3.86c1.67,10-2.37,17.74-9,24.74-4.37,4.6-6.29,10.45-7.19,16.68-.76,5.28-2,6-6.27,3-13.84-9.41-24.13-21.74-30.3-37.41-3.09-7.86-2.29-15.63.13-23.44,3.31-10.68,6.55-21.37,3.76-32.77-.31-1.28-.36-2.85,1.28-3.36a3,3,0,0,1,3.42,1.54c1.5,2.38,2.78,4.9,4.21,7.32.49.84,1.1,2,2.25,1.51.64-.24,1.14-1.18,1.44-1.91a15.15,15.15,0,0,0-8.91-20c-1.7-.6-3.89-.78-4.14-3-.3-2.56,2.11-3.08,3.78-4a19.35,19.35,0,0,1,13-2.25,92.64,92.64,0,0,0,46.18-4.42c10.24-3.65,16.74,1.35,17,12.21.11,4.49-.17,9,1.07,13.41,1,3.7,2.85,4.2,5.55,1.48,3.77-3.8,4.42-8.9,5.27-13.76,1.17-6.68,3-12.67,8.11-17.71,4.73-4.68,6.39-11.18,7-17.76.34-3.47.28-7,.5-10.48.56-9-1.72-16-11.14-20-6.93-2.88-10.94-9.54-15.06-15.62-3.75-5.51-7.43-11.06-12.91-15.09a31.65,31.65,0,0,0-12-5.85c-4-.86-5.72.57-4.76,4.32,3.22,12.67,4.17,12.5-11.13,19.73-12.17,5.75-24,4.23-35-3.31-8.63-5.92-12.71-15.51-8.27-24.84,6.64-13.94,9.05-28.69,11.68-43.54.78-4.42,2.37-8,7.78-8s7.92,1.93,9.58,8c1.44,5.3,3.15,10.46,6.85,14.77,2.66,3.08,5.18,2.31,7.79.26s5.38-3.8,3-7.68a23.93,23.93,0,0,1-1.32-2.69c-.42-.92-.77-1.88.12-2.74,1.06-1,2.15-.61,3.16.09,7.2,4.95,15.64,5.2,23.85,6.24,5.54.7,10.89-.7,16.3-1.69,6.31-1.15,12.33-1.2,15.5,6.22,1.52,3.56,5.44,2.65,8.4,3.15,5.68,1,6.83,2.71,4.33,8-4,8.41-11.9,10.43-20,12.18-2.28.5-5.31.12-5.48,3.77-.18,3.84,1.42,6.1,5.49,6,13.23-.37,24.39-4.55,30.76-18.83,3.67-8.25,5.32-17.11,7-25.92.28-1.47.56-2.94.88-4.4,2-8.92,6.35-12.64,15.35-13.08,4.08-.2,4.55,2.87,4.7,5.67.26,4.65.07,9.32.07,14Z" transform="translate(0)"/><path class="cls-1" d="M450.07,263.56c-1.22,2-3.35,2.18-5.12,2.89-16.4,6.68-28.56,18.09-36.8,33.59-3.41,6.43-7.26,12.21-13.22,16.56-4.41,3.23-7.05,7.81-8.86,13-6.13,17.58-9.1,35.72-9.91,54.26-.11,2.32,0,4.68-1.24,6.8a8.55,8.55,0,0,1-7,4.23c-3,.16-2.2-3.27-2.72-5.05-3.86-13.24-6.66-26.74-9.61-40.21-1.8-8.21-1-15.81,3.61-22.91,1.27-1.95,2.19-4.26,3.83-5.82,10.51-10,7.69-20.85,2.3-31.93-.5-1.05-.93-2.13-1.51-3.14-1.54-2.7-.81-3.79,2.31-4.06a144.1,144.1,0,0,0,35-7.64,107.91,107.91,0,0,0,14.2-6c8.09-4.18,16.82-6.12,25.82-7A12.77,12.77,0,0,1,450.07,263.56Z" transform="translate(0)"/><path class="cls-1" d="M477.78,430.35c.06,3-1.44,3.78-2.37,4.85-1.64,1.89-1.72,3.6-.52,5.87,2.88,5.49,2.06,9-2.87,13-6.21,5.09-13.65,6.53-21.41,7-2.91.16-6.23-.41-6.34,4.27s2.94,5.44,6.51,5.51,8.72-1.44,9.9.16c1.94,2.65-3.23,5.35-3.51,8.76-.46,5.67-3.74,8.33-9,9.74a34.47,34.47,0,0,0-11.78,6.33,32.83,32.83,0,0,1-6.4,3.8c-11.52,5.14-17.87,2.79-23.39-8.58a111.47,111.47,0,0,1-7.94-23.53c-.45-1.91-.63-3.79.8-5.15,1.71-1.62,3.86-.86,5.6.08A62.68,62.68,0,0,0,416,467.22c3.64,1.14,5.11-.6,6.33-3.65,1.29-3.21.3-5.2-2.73-6.26-6.72-2.36-11.94-6.39-15.18-12.85-1.26-2.52-2.32-5.09.29-7.21s4.57-.08,6.5,1.56c6.84,5.78,8.08,5.72,14.18-.71,5-5.33,11-8.75,18.52-8.13C455.12,430.89,466.23,434,477.78,430.35Z" transform="translate(0)"/><path class="cls-1" d="M551.16,536.59c-10.92-.3-21.26-1.59-31.15-5.5-6-2.37-11.69-1.83-17.87.33a97.59,97.59,0,0,1-46.23,4.3,20.66,20.66,0,0,1-4.76-1.42c-3.21-1.26-7.82-2.13-8.1-5.7s4.68-3.3,7.3-4.67c6.35-3.32,12-7.68,18.12-11.41,7.51-4.59,14.75-6.18,22.59-.27,6.09,4.59,13.42,6.27,21.06,6.75,6.73.42,12.19-1.24,16.78-6.67,4.41-5.21,11.69-5.9,17.41-9.16,2.26-1.28,4.89.21,6.65,2.23,2.72,3.14,5.35,6.37,8,9.53,4.27,5,9.09,9.21,15.44,11.42,1.52.54,3.6,1,3.41,3.07-.16,1.79-2.1,2.5-3.62,3.09C568.05,535.68,559.44,536.33,551.16,536.59Z" transform="translate(0)"/><path class="cls-1" d="M458.18,619.58c-5.52-.22-10.69-2.8-15.55-6.11-11.7-8-19.92-19-26.53-31.26a135.87,135.87,0,0,1-11.8-31.1c-2.95-11.63,2.48-23.48,11.87-26.57,6.92-2.27,9.34-.38,9.91,6.84,1.3,16.6,3.71,33,9.79,48.67a32,32,0,0,0,4.45,8.32c2.79,3.54,4.51,3.31,6.37-.72,1.32-2.86,2.56-5.75,4-8.56.59-1.16,1.51-2.43,3-2.25s1.32,1.73,1.63,2.8c3.25,11.14,6.16,22.38,10.45,33.21C467.65,617.62,465.36,619.6,458.18,619.58Z" transform="translate(0)"/><path class="cls-1" d="M354.81,428.05c.3-2.05.43-4.05.9-6,1.45-5.87,4.31-7.91,9.5-7,4.52.81,8.86,5.64,7.26,10.27-5.18,15,1.68,28.75,3.15,43,.45,4.46,1.57,8.86,1.11,13.38-.35,3.4-1.87,4.43-4.87,2.15a12.53,12.53,0,0,1-4.81-6.77c-3.8-14.08-7.6-28.17-11.29-42.27A56.69,56.69,0,0,1,354.81,428.05Z" transform="translate(0)"/><path class="cls-3" d="M543.46,547.82a56.62,56.62,0,0,1-18.89,5c-7.75.84-15.59.91-23.39,1.32-4,.2-7.44-1.37-10.61-3.65-.93-.67-2.06-1.38-1.73-2.75s1.78-1.27,2.87-1.39c11.58-1.28,23.2-1.93,34.82-.72C531.71,546.13,537.07,545.38,543.46,547.82Z" transform="translate(0)"/><path class="cls-4" d="M465.05,412.51c-.08,2.45-1.45,2.59-2.82,2.26C452,412.28,442.91,416,434,420.16c-3.34,1.55-6.68,3-10.44,3-1.45,0-2.71-.39-3.16-1.84s.6-2.32,1.57-2.85c8.73-4.73,16.69-11.05,26.67-13.17,5.53-1.18,10.62-.16,14.59,4.21A17.14,17.14,0,0,1,465.05,412.51Z" transform="translate(0)"/><path class="cls-3" d="M571.56,415c-3.67-.26-7.21.84-10.81,1.43-1,.18-2.07.25-2.59-.82s.22-1.82.92-2.59c6.48-7.16,18.61-8.23,26.41-2.07,5.48,4.32,10.21,9.58,16.41,13,.79.43,1.5,1,1.07,1.89-.59,1.22-1.85,1.32-3.05,1.13a28.83,28.83,0,0,1-14.11-7A19.32,19.32,0,0,0,571.56,415Z" transform="translate(0)"/><path class="cls-5" d="M598.69,403A90.35,90.35,0,0,1,608,404.2c4.28,1,6.38,3.82,6,8.37-.46,5-3.37,6.9-7.83,4.71a47.14,47.14,0,0,1-12.91-9.15c-1-1-2.58-2.17-2-3.72s2.51-1.17,3.95-1.22c1.16,0,2.32,0,3.48,0Z" transform="translate(0)"/><path class="cls-5" d="M420.75,403.15c2,.07,3.73,0,4.14,1.87.34,1.53-1,2.29-2.11,3q-7.72,4.92-15.44,9.86c-2.09,1.34-4.31,2.12-6.33.19s-1.18-4.26,0-6.37c2-3.62,4.68-6.41,9-7C413.75,404.09,417.51,403.6,420.75,403.15Z" transform="translate(0)"/><path class="cls-5" d="M468,480.35a12.55,12.55,0,0,1,2.46-7.09,5.58,5.58,0,0,1,7-2.13c3.2,1.22,1.27,3.45.82,5.4a20.66,20.66,0,0,0,.9,12.16c.56,1.51,1.17,3.26-.56,4.51s-3.62.54-5.08-.5C469.57,489.92,467.89,485.93,468,480.35Z" transform="translate(0)"/><path class="cls-6" d="M397.5,399.23c-.32,2.18-1.38,3.85-3.46,3.64a63.2,63.2,0,0,1-8.63-1.85,1.79,1.79,0,0,1-1.31-1.87,1.39,1.39,0,0,1,1.17-1.4,69.94,69.94,0,0,1,9.07-2C396.49,395.55,397.38,397.36,397.5,399.23Z" transform="translate(0)"/><path class="cls-6" d="M630.22,396a24.11,24.11,0,0,0,6.86,1.59c1,.1,2,.6,1.85,1.87s-1,1.6-2,1.85c-2.23.54-4.43,1.18-6.66,1.69a3.52,3.52,0,0,1-4-1.3,3.78,3.78,0,0,1-.21-4.19C627,395.9,628.36,395.74,630.22,396Z" transform="translate(0)"/></svg>