<svg id="Layer_1" data-name="Layer 1" xmlns="http://www.w3.org/2000/svg" viewBox="0 0 1024 1024"><defs><style>.cls-1{fill:#015ba9;}.cls-2{fill:#fff;}</style></defs><rect class="cls-1" width="1024" height="1024"/><path class="cls-2" d="M298.94,477.41c-2.56,5.26-2.48,5.43,3.35,5.45,18.49,0,37,0,55.47,0v.34c1.17,0,2.34,0,3.5,0,17.64,1,35.31.39,53,.64,2.81,0,5.57-.15,5.71-3.92.29-7.65.48-15.31.71-23,.07-2.66-1.1-3.25-3.43-2.11a76,76,0,0,1-13.09,4.87c-20.07,5.57-40.61,4.45-61.08,4.31-3.41,0-4-2.33-4-5.11.06-8.32,0-16.66.19-25,.18-6.85.47-6.95,7.19-7,12.19-.12,24.33.47,36.3,2.86,3.81.76,5.19-.37,5.07-4.22-.19-5.66-.11-11.33,0-17,.05-3-1.17-3.82-4-3.21-12.68,2.73-25.55,1.65-38.35,1.91-4,.08-5.79-1.36-5.68-5.52q.3-12,.11-24c-.08-4.3,1.66-6,5.93-5.84,21.46.9,43.09.7,63.13,10.25,2.91,1.39,4,.32,4-2.63.05-6.49.11-13,.24-19.49.12-6.1-.34-6.71-6.31-6.74-13.49-.07-27,0-40.48-.12-21.49-.13-43,.14-64.45-.91-4.15-.21-5.23.79-2.79,4.59,2.71,4.21,3.15,9,3.1,13.95q-.51,48-1,95.93A24.27,24.27,0,0,1,298.94,477.41Z" transform="translate(0 0)"/><path class="cls-2" d="M305,531.06c-9.38,7.42-18.58,15.08-28.76,23.37,2.05.17,3.17.34,4.28.36,31.13.32,62.26.54,93.39,1a34,34,0,0,0,21-6.63c11.79-8.54,22.37-18.71,35.2-25.85-.74-1.18-1.63-1-2.42-1-31.46-.31-62.92-.71-94.39-.87A44.36,44.36,0,0,0,305,531.06Z" transform="translate(0 0)"/><path class="cls-2" d="M610.22,475.6c20,11.79,41.61,16.47,64.85,15.26,14.88.74,29.68-1.28,44.36-4.59,3.24-.72,5.54-1.91,5.59-5.77.1-7.82.43-15.64.6-23.46,0-1.25.57-3-1-3.56s-2.37.91-3.32,1.75c-18.31,16-39.55,18.16-61.89,12-21.16-5.81-34.79-23.65-35.54-44.46-.75-20.49,12-39.45,32.43-46.91,22.22-8.12,43.21-5.26,62.54,8.66,1.16.84,2.2,2.65,3.75,2,1.89-.8,1.12-2.94,1.15-4.5.11-6.66.12-13.32.1-20,0-6.33-.55-6.88-7-7.82a253.18,253.18,0,0,0-52.33-1.73c-21.24,1.31-41.33,7.36-58.73,20.22C570.55,398.79,570.31,452,610.22,475.6Z" transform="translate(0 0)"/><path class="cls-2" d="M456.32,424a66.22,66.22,0,0,0,15.73,4.86c11.3,2,22.64,3.92,34,5.9,7.41,1.3,14.75,2.93,21.39,6.61,5.08,2.81,8.72,6.9,8.42,13.14s-4.45,9.78-9.8,12.1c-8.14,3.52-16.79,4.12-25.48,4-21.28-.36-41.75-4.13-60.42-15-3.16-1.85-4.1-.67-4.09,2.57,0,6.16.1,12.34-.22,18.49-.19,3.71,1.25,5.36,4.77,6.27a239.88,239.88,0,0,0,75.85,6.66,89.8,89.8,0,0,0,27.25-6c10.4-4.13,19.09-10.27,23.19-21.29,7.58-20.36-.62-40-20.44-48.95-16.18-7.29-33.6-9.41-50.89-12-7.45-1.11-14.81-2.5-21.38-6.47-8.33-5-8.37-15.17-.1-20.35a30,30,0,0,1,13.58-4.69c25.36-2,49.47,1.74,71.1,16.2,1,.64,1.9,1.77,3.08,1.29,1.58-.63,1-2.3,1.07-3.54.11-6.17-.1-12.35.24-18.5.27-4.75-1.75-6.67-6.24-7.84C540,353.06,523,350,505.54,350.73c-.67-.06-1.33-.14-2-.17-17.84-.86-35.27.07-51.24,9.62-13.54,8.09-18.93,20.1-17.92,35.31C435.32,409.75,444,418.36,456.32,424Z" transform="translate(0 0)"/><path class="cls-2" d="M123.87,380.05c16.18-8.12,33.82-7.9,51.24-9.1,4.83-.34,6.4,1.52,6.35,6.27-.24,25.47,0,50.95-.52,76.42-.18,8.49.73,17.41-4.2,25.3-1.5,2.41.68,2.79,2.44,2.81q20.73.17,41.46.24c2.34,0,3.65-.7,2.11-3.27-3.5-5.83-3.84-12.29-3.76-18.84q.4-33.21.82-66.42c.07-6.16.13-12.32.11-18.48,0-3.14,1.28-4.6,4.53-4.33C242,372.13,259.78,372.7,276,380.9c3.91,2,5,.67,5-3.25,0-6.49-.23-13,.32-19.47.41-4.82-1.31-6-5.82-6-24.64-.11-49.29.29-77.55-.86-4.69,0-13,0-21.34,0l-50.46-.18c-3,0-6,.07-6,4.15-.11,7.49-.13,15-.13,22.48C120,380.52,121.33,381.32,123.87,380.05Z" transform="translate(0 0)"/><path class="cls-2" d="M188.26,621.34c-2.16-.07-4.33-.16-6.49-.09-3.54.13-4.85-1.38-4.07-4.88q1.73-7.8,3.2-15.66c.4-2.13,1.71-4.87-2.11-5.38-3.15-.43-5.07.86-5.63,4.15-.53,3.11-1.21,6.21-1.93,9.28-3.4,14.43,0,12.25-15.87,12.53-4.2.07-5.82-1.33-4.76-5.65,1.23-5,2.21-10.08,3.09-15.16.33-1.9,1.72-4.57-1.8-5.14-2.9-.47-5.32.09-6,3.6-.74,3.93-1.62,7.82-2.41,11.74-2.52,12.4-1.1,10.38-12.85,10.58-.67,0-1.33,0-2,0-2.48,0-4.23.76-4.26,3.65s1.53,3.67,4.06,3.94c11,1.2,11,1.24,8.81,12.26a8.37,8.37,0,0,0-.17,1c-.39,5.06-2.89,7.47-8.15,6.89a33.5,33.5,0,0,0-6.48.17c-2.21.18-3.11,1.62-3.11,3.76s1.05,3.47,3.26,3.59a63.73,63.73,0,0,0,6.48.1c3.69-.17,4.68,1.49,3.92,4.92-1.16,5.2-2.13,10.44-3.15,15.66-.41,2.12-1.23,4.54,1.87,5.28s5.16-.48,5.82-3.77c.89-4.41,1.86-8.8,2.78-13.2,1.87-8.88,1.86-8.88,10.89-8.88,1.17,0,2.33,0,3.5,0,6.05.09,6.44.51,5.34,6.29-.91,4.74-2,9.45-2.91,14.18-.44,2.21-1.64,4.86,2,5.44,3,.48,5.18-.35,5.79-3.83.93-5.41,2.31-10.75,3.09-16.18.64-4.38,2.44-6.58,7.16-6a51.87,51.87,0,0,0,7.48,0c2.29-.05,3.83-1,3.93-3.52.1-2.77-1.36-3.74-3.93-4-3.53-.44-8.23,1.73-10.33-1.59s.74-7.33,1.25-11.08c.14-1,.39-2,.54-2.94.51-3.17,2.37-4.54,5.54-4.47,2.83.06,5.66,0,8.49-.14,2.5-.1,3.48-1.6,3.42-4C191.57,622.62,190.49,621.4,188.26,621.34ZM165,638.74c-2.24,10,.39,10.39-12.75,10.25-1.5,0-3,0-4.5-.12-2.46-.12-3.69-1.28-3.16-3.88.86-4.24,1.7-8.48,2.58-12.72a3.68,3.68,0,0,1,3.84-3.22c2,0,4,0,6,0C167.14,628.89,167.22,628.91,165,638.74Z" transform="translate(0 0)"/><path class="cls-2" d="M214,554.06a33.69,33.69,0,0,0,20.59-6.24c11.77-8.31,21.75-19,34.86-25.43-.93-1.58-2-1.33-3-1.34-31.8-.31-63.6-.66-95.41-.82-8-.05-15.34,2.46-22.19,6.68-11.79,7.28-20.45,18.42-32.31,26a41.64,41.64,0,0,0,9,.68C155,553.74,184.5,553.72,214,554.06Z" transform="translate(0 0)"/><path class="cls-2" d="M303.68,595.23c-3.58.42-4,3.1-4.63,5.64-5.11,19.33-10.15,38.67-15.29,58-.39,1.44,0,4-2.22,3.87-1.53-.06-1.63-2.31-2.06-3.7-5-16.23-10.07-32.45-14.87-48.75-1.16-3.94-2.87-5.65-7.23-5.77-4.63-.12-5.55,2.52-6.57,5.86q-7,23.21-14.19,46.35c-.67,2.14-.62,5.8-2.87,5.85-2.59.05-2.17-3.62-2.72-5.69-4.2-15.78-8.21-31.6-12.31-47.4-1-3.71-1.88-7.44-3.07-11.08-1.47-4.48-5.41-3.4-8.46-2.93-3.82.58-1.89,3.61-1.37,5.57,6.66,24.94,13.43,49.86,20.11,74.8,1,3.86,1.89,7,7.24,7.06,5.5,0,6.53-3.12,7.73-7.19,4.76-16.13,9.68-32.22,14.58-48.32.42-1.39.44-3.63,2-3.75,2.21-.16,1.89,2.36,2.33,3.78,5.16,16.71,10.32,33.42,15.25,50.2,1.15,3.9,3.1,5.73,7.32,5,3.7.77,5.62-.93,6.62-4.7,6.77-25.43,13.72-50.81,20.55-76.23C311.09,595.8,309.74,594.53,303.68,595.23Z" transform="translate(0 0)"/><path class="cls-2" d="M0,1019.41V1024H4.59C.84,1024,0,1023.16,0,1019.41Z" transform="translate(0 0)"/><path class="cls-2" d="M1019.41,0H4.59Q512,.15,1019.41,0Z" transform="translate(0 0)"/><path class="cls-2" d="M636.13,527.9c-15.33,6.3-24.89,20.16-38.68,28.5,1.25,1.74,2.53,1.32,3.61,1.33q47.19.51,94.37.95a31.37,31.37,0,0,0,17.89-5.29c12.79-8.37,23.11-20,36.58-27.85a12.8,12.8,0,0,0-1.93-.27q-47.94-.49-95.86-.93A41.11,41.11,0,0,0,636.13,527.9Z" transform="translate(0 0)"/><path class="cls-2" d="M4.59,0H0V4.59C0,.84.84,0,4.59,0Z" transform="translate(0 0)"/><path class="cls-2" d="M0,4.59V1019.41Q.15,512,0,4.59Z" transform="translate(0 0)"/><path class="cls-2" d="M780.21,486.21c31.22,10.63,62.52,9.26,92.13-6.21,19.93-10.41,32.15-26.89,35-49.79,3.5-27.84-9.07-52.55-33.76-65.87A84.06,84.06,0,0,0,829,354a96.46,96.46,0,0,0-51.7,8.67c-19.19,9-33.93,22.5-39.94,43.5C727.6,440.27,745.34,474.34,780.21,486.21Zm4-94.56c11.25-15.7,26.84-21.55,45.46-18.52,17.94,2.91,29.83,14.22,35.24,31.05,5.27,16.42,4.08,32.91-5.58,48-10.76,16.79-26.5,22.63-45.61,20-17.29-2.41-28.35-13-34.89-28.71A44.76,44.76,0,0,1,775.56,423C775.36,411.61,777.51,401,784.21,391.65Z" transform="translate(0 0)"/><path class="cls-2" d="M1019.41,1024q-507.4-.15-1014.82,0H1024v-4.59C1024,1023.16,1023.16,1024,1019.41,1024Z" transform="translate(0 0)"/><path class="cls-2" d="M1024,1019.41V4.59q-.16,253.71-.09,507.41T1024,1019.41Z" transform="translate(0 0)"/><path class="cls-2" d="M426.06,600.29c-1.25-3.35-2.94-5.19-6.85-5.17s-5.64,1.76-6.88,5.13c-5.73,15.47-11.61,30.88-17.43,46.32C391,657,387,667.44,383.12,677.91c-.56,1.53-2.14,3.46.6,4.62a7.59,7.59,0,0,0,10-4.46c1.83-4.83,3.66-9.66,5.31-14.55,1.12-3.32,3.17-4.72,6.7-4.66q13.5.21,27,0c3.61-.05,5.43,1.54,6.51,4.84,1.62,4.9,3.66,9.66,5.32,14.55,1.14,3.35,3.19,5,6.63,4.4,3.73.36,5.6-.38,4-4.68Q440.48,639.18,426.06,600.29ZM430,649.78c-3.5.07-7,0-10.5,0v0c-3.49,0-7,0-10.49,0-3,0-4.37-1.23-3.19-4.41,3.85-10.3,7.62-20.62,11.45-30.92.33-.89.53-2.1,1.69-2.27,1.34-.19,1.55,1.11,1.87,2,4,10.6,7.9,21.22,11.89,31.82C433.73,648.76,432.46,649.73,430,649.78Z" transform="translate(0 0)"/><path class="cls-2" d="M531.87,620.22c-13.61,6.21-18.31,18-17.89,32.35.42,13.93,7.72,25,19.5,29.23a32.75,32.75,0,0,0,36-9.07c1.17-1.34,3.08-2.71,2.12-4.68s-3.26-2.87-5.36-3.33c-2.47-.54-3.27,1.87-4.6,3.23-6.42,6.58-14.17,8.56-22.87,6.15-8-2.22-12.29-8-14.27-15.88-1-3.84.12-5.7,4.29-5.63,6.66.1,13.32,0,20,0v-.07c6.66,0,13.32-.12,20,0,4.18.1,5.43-1.77,5.37-5.76C573.77,623.66,550.65,611.64,531.87,620.22Zm27.25,24c-5,.11-10,0-15,0v0c-5.17,0-10.33,0-15.49,0-3.25,0-4-1.58-3-4.55,2.39-7.63,10.29-13.55,18.52-13.71s16.3,5.15,18.88,12.38C564.61,642.83,563.85,644.08,559.12,644.18Z" transform="translate(0 0)"/><path class="cls-2" d="M748.31,648.75c-3.77-1.7-7.79-2.87-11.71-4.24-3.14-1.1-6.4-2-9-4.16-5.11-4.31-4.27-10.58,1.89-13.09,6.5-2.65,12.62-1.52,17.45,3.48,2.87,3,4.43,1.38,6.53-.5,2.52-2.26,1.22-4-.54-5.86-7.57-8-22-9.31-31.25-2.73a14.64,14.64,0,0,0-6.6,13.2c.33,9.25,6.64,13.21,14.07,16.17,4.63,1.85,9.66,2.54,14.12,4.92,3.88,2.07,6.2,5,5.76,9.59s-3.22,7.14-7.32,8.56c-7.27,2.51-15.16-.14-20.79-7.09-1.64-2-2.84-4.28-5.8-1.5-2.37,2.21-4.38,4-1.63,7.44,5.86,7.24,13.55,10.42,22.62,10.79a25.4,25.4,0,0,0,12.08-2.79c6.67-3.53,10.5-8.89,10.64-16.75S754.87,651.7,748.31,648.75Z" transform="translate(0 0)"/><path class="cls-2" d="M642.88,600.2c0-3.27-1.16-5-4.64-5q-26.24.06-52.48,0c-3.49,0-4.66,1.71-4.62,5s1.44,4.55,4.56,4.52c5-.05,10,.23,15-.05,4.73-.26,6.57,1.53,6.47,6.32-.21,11-.06,22-.06,33h0c0,11.33,0,22.66,0,34,0,3.38,1.44,4.78,4.84,4.77s5-1.22,5-4.65c0-1.83,0-3.67,0-5.5,0-20.49,0-41,0-61.48,0-4.13.91-6.71,5.85-6.43,5.15.3,10.32,0,15.49.05C641.4,604.74,642.83,603.36,642.88,600.2Z" transform="translate(0 0)"/><path class="cls-2" d="M826.41,666.62c-2.55-1.45-5.1-4.43-8.4,0-9.45,12.73-28.48,10.25-35-4.35a29,29,0,0,1-1.08-20.51c3.29-11.3,13.18-17.22,24.71-14.94a18.49,18.49,0,0,1,12,8.24c2.72,4,5.34.47,7.72-.61,2.84-1.28,1.24-3.34.11-4.94a26,26,0,0,0-16.55-11.16c-22.33-4.46-38.94,9.18-39,33.25,0,.74,0,2.74.26,4.72,1.32,12.32,9.84,22.81,21.06,26,13.28,3.78,26.17,0,33.67-10C827.15,670.62,829.75,668.52,826.41,666.62Z" transform="translate(0 0)"/><path class="cls-2" d="M871.31,617.42c-18.43-.24-32.09,13.69-32.15,32.76-.06,19.68,13.1,33.52,31.88,33.51,18.48,0,31.6-13.8,31.61-33.25C902.66,631.35,889.66,617.65,871.31,617.42Zm-5.89,56.63c-9.37-2.31-15.7-10.48-16.23-22-.42-9.07,2.11-17.3,10.4-22.36,7.62-4.66,15.57-4.63,23.1.25s9.72,12.68,10,20.48C892.15,667.35,879.93,677.63,865.42,674.05Z" transform="translate(0 0)"/><path class="cls-2" d="M1019.41,0c3.75,0,4.59.84,4.59,4.59V0Z" transform="translate(0 0)"/><path class="cls-2" d="M812.48,526.11a43.82,43.82,0,0,0-18.81,4.41c-14,6.46-22.52,20-37.21,27.58a25.53,25.53,0,0,0,3.47.78c32.63.16,65.25,1.53,97.88.91,7-.14,13.12-2.69,18.86-6.95,11.07-8.21,20.8-18.2,33.06-25.54a21.1,21.1,0,0,0-2.37-.33C875.75,525.76,844.11,526.32,812.48,526.11Z" transform="translate(0 0)"/><path class="cls-2" d="M678.85,618.57c-14.09-3.71-27.57,1.92-34.59,14.36-3.74,6.65-4.61,13.8-4.14,21.25.8,13,8.84,24.13,20.12,27.87,12.84,4.25,27,.45,35.44-9.5,3.12-3.67,2.75-4.87-1.35-7.13-3.42-1.89-4.76.56-6.59,2.45-6.36,6.59-14.12,8.64-22.84,6.24-8.25-2.27-12.4-8.41-14.39-16.39-.89-3.61,0-5.32,4-5.21,6.82.19,13.65,0,20.48,0v0c6.83,0,13.65-.07,20.48,0,3.53,0,5.14-1.26,5.11-5C700.49,634,691.58,621.93,678.85,618.57Zm6.34,25.61c-5,.11-10,0-14.93,0v0c-5.14,0-10.28,0-15.42,0-3.06,0-4.15-1.3-3.22-4.42,2.25-7.56,10.06-13.56,18.29-13.84,8.44-.29,16.49,4.93,19.19,12.43C690.71,642.83,689.94,644.07,685.19,644.18Z" transform="translate(0 0)"/><path class="cls-2" d="M505.24,618.53c-8.65-2.53-16.06-.39-22.32,6.06-.86.88-1.41,2.71-3,2.1s-1.07-2.32-1-3.56c.13-3.79-1.83-4.87-5.29-4.82-3.69.05-4.38,2.13-4.36,5.2.06,8.82,0,17.64,0,26.46,0,9.16.06,18.31,0,27.46,0,3.39.93,5.32,4.79,5.32s4.9-1.85,4.86-5.27c-.07-8,0-16,0-24a36.94,36.94,0,0,1,3.73-16.91c4.37-8.51,10.93-11.71,20.16-9.12,4.35,1.22,4.77-1.71,5.83-4.16C510,620.08,507.52,619.19,505.24,618.53Z" transform="translate(0 0)"/><path class="cls-2" d="M560.31,546.87c9.18-7.94,18.45-15.82,29.21-21.67.12-.06,0-.54,0-1-1-.06-2-.14-3-.18-30.28-1.22-60.58-.29-90.86-1-12.38-.31-22.8,3.81-32.29,11.09-4.35,3.33-8.25,7.24-12.53,10.68s-8.88,6.69-13.33,10l.29,1.14c3.75.23,7.49.65,11.24.67,27.63.17,55.26,0,82.88.48A40.44,40.44,0,0,0,560.31,546.87Z" transform="translate(0 0)"/><path class="cls-2" d="M360.36,621.47c-16.21-9.21-41.64-3.1-45.68,24.07-2.2,14.82,5.12,29.8,17.61,35.51s28.65,2.15,37.74-8.41c3.6-4.18,2.82-6.41-2.5-7.74-2.88-.72-3.74,1.57-5.18,3-6.28,6.33-13.82,8.45-22.4,6.33-7.89-2-12.29-7.54-14.46-15.07-1.61-5.57-.89-6.54,4.78-6.58,6.33-.05,12.65,0,19,0h0c6.83,0,13.65-.09,20.47,0,3.51.06,5.27-1.2,5.17-4.93C374.58,636.4,370.4,627.18,360.36,621.47Zm-.65,22.72c-4.82.09-9.65,0-14.47,0v0c-5.32,0-10.64,0-16,0-3.26,0-4-1.44-3.07-4.44,2.39-7.6,10.19-13.54,18.4-13.84a19.72,19.72,0,0,1,19,12.1C365.48,642.74,364.67,644.1,359.71,644.19Z" transform="translate(0 0)"/></svg>