<?xml version="1.0" encoding="utf-8"?>
<!-- Generator: Adobe Illustrator 25.4.1, SVG Export Plug-In . SVG Version: 6.00 Build 0)  -->
<svg version="1.1" id="Layer_1" xmlns="http://www.w3.org/2000/svg" xmlns:xlink="http://www.w3.org/1999/xlink" x="0px" y="0px"
	 viewBox="0 0 1024 1024" style="enable-background:new 0 0 1024 1024;" xml:space="preserve">
<style type="text/css">
	.st0{fill:#F4EADB;}
	.st1{fill:#FE8732;}
	.st2{fill:#D52401;}
</style>
<path class="st0" d="M-804.9,1044.1c-169.1,0-338.3,0-507.4,0.1c-3.8,0-4.6-0.8-4.6-4.6c0.1-338.3,0.1-676.5,0-1014.8
	c0-3.8,0.8-4.6,4.6-4.6c338.3,0.1,676.5,0.1,1014.8,0c3.8,0,4.6,0.8,4.6,4.6c-0.1,338.3-0.1,676.5,0,1014.8c0,3.8-0.8,4.6-4.6,4.6
	C-466.6,1044.1-635.7,1044.1-804.9,1044.1z M-805.2,357.6h339.8c2.7,0,5.3,0,8-0.2c9.2-0.8,14.8-6.7,15.4-15.9
	c0.4-6.8-0.2-13.7-1.7-20.4c-5.6-25.7-18.7-47.5-35.4-67.4c-30.4-36-68.6-61.3-111.2-80.3c-62.4-27.8-128.3-38.9-196.1-40.9
	c-38-1.2-76,1.1-113.5,6.7c-52.7,8-103.2,23-150,49c-34.9,19.4-65.7,43.7-89.4,76.1c-14.4,19.7-25.2,41.1-28.1,65.8
	c-1.8,15.9,0.6,28.9,23.3,27.5c1-0.1,2,0,3,0L-805.2,357.6z M-804.8,802h-342.9c-15.7,0-22.3,8.3-19.5,23.8
	c2.2,12,8.2,22.1,15.9,31.2c17.8,21.1,40.8,34.4,66.2,44c39.1,14.8,80.1,20.7,121.4,24.9c37.3,3.8,74.8,5.2,112.2,5.8
	c34.2,0.6,68.3,0.5,102.5-0.3c45.3-1.1,90.5-3.2,135.5-9.4c30.2-4.1,60-10,88.7-20.9c25.9-9.8,49.5-23.1,67.3-45
	c9.1-11.2,16.2-23.3,15.7-38.4c-0.3-8.8-5.8-14.7-14.5-15.7c-2.3-0.2-4.7-0.3-7-0.2L-804.8,802z M-654.8,665.7v-69
	c0.2-5.2-0.3-10.3-1.2-15.4c-3.5-15.7-15.2-26.7-30.3-28.3c-18.4-1.9-31.9,5.3-38.7,20.7c-2.6,6-3.9,12.4-3.8,18.9
	c0,16.2,0,32.3,0,48.5c0.1,1.7,0,3.4-0.3,5c-0.8,3.4-4,4.3-6.4,1.8c-1-1.1-1.9-2.3-2.5-3.7c-9.3-18-18.5-36.1-27.8-54.1
	c-4.1-8-8.1-16-13.8-23.1c-15.3-18.8-43.8-19.7-59-1.6c-6.8,8.2-9.2,17.9-9.2,28.3c-0.1,30.3-0.1,60.6,0,90.9
	c0,18.5-0.3,37,0.1,55.5c0.6,30.2,29.3,47.7,55.2,33.7c12.8-6.9,18.2-18.8,18.6-32.7c0.5-17.6,0.2-35.3,0.2-53
	c0-2.7-0.1-5.7,3.2-6.5s4.5,2.1,5.7,4.5c8,15.5,15.9,31.1,24.1,46.5c5.9,11.2,10.7,22.9,19.2,32.6c15,17.1,42.3,17.7,57,0.9
	c7.7-8.7,9.9-19.3,9.9-30.6C-654.8,712.3-654.7,689-654.8,665.7L-654.8,665.7z M-1167.3,665.2c0,14.3-0.1,28.7,0,43
	c0,11.8-0.3,23.7,0.5,35.5c1.3,19.2,15.2,33.3,33.2,34.6c21.2,1.5,36.2-9.3,40.9-29.2c1.3-5.7,1.3-11.5,1.3-17.4c0-9,0-18,0-27
	c0-2.2,0.3-4.5,3-5.2c2.7-0.6,4.4,1,5.5,3.2c0.3,0.6,0.6,1.2,0.9,1.8c6.1,13.7,13.5,26.7,22.1,39c7.5,10.8,15.1,21.6,26.8,28.5
	c13.6,8.1,27.5,8.9,41.2,0.7c13.4-8,20.6-20.1,20-36.1c-0.4-11.1-6.1-19.9-13.2-27.8c-11.9-13.2-23.7-26.6-34.2-41
	c-6.3-8.6-5.8-10.9,1.7-18.1c13.1-12.5,26.3-25.1,34.4-41.8c4-8.3,6.1-17,3.9-26.2c-3.6-15-13.6-24.1-28.3-27.8
	c-14.4-3.7-26.6,0.8-36.6,11.5c-6.1,6.6-10,14.9-15,22.3c-6.9,10.4-13.4,21.1-22,30.3c-2,2.1-3.9,5.1-7.5,3.6
	c-3.4-1.4-2.5-4.7-2.6-7.5c-0.2-9.2,0.6-18.3-0.5-27.5c-1.9-14.3-8.4-25.9-22.4-31.2c-13.7-5.2-27.3-4.3-39.2,5.2
	c-10.4,8.5-13.8,20.4-13.8,33.4C-1167.3,617.9-1167.3,641.5-1167.3,665.2z M-529.4,552.7c-6.5,0-13.1,0.5-19.5,1.5
	c-36.6,6.4-63.6,25.3-78,60.2c-10.5,25.3-11.8,51.7-7.1,78.5c4.1,23,13.9,43,31.5,58.7c24.5,21.8,53.5,28.9,85.8,25.7
	c46.2-4.6,77.2-39.9,74.8-86.2c-1-18.5-8.5-33.8-26-41.9c-19.8-9.2-40.8-10-61.4-3.9c-20.9,6.1-26.2,33-10.2,47.6
	c6.3,5.8,14,8,22.5,8.2c4,0.1,7.8,0.8,9.2,5.3c1,3.6-1.7,7.5-6.4,9.5c-1.5,0.6-3.2,1.1-4.8,1.4c-15.9,2.4-32.5-5.1-40.5-19
	c-9-15.5-9.8-32.4-5.5-49.3c5.4-21.5,22.4-33.6,44.6-32.8c9.5,0.3,17.7,4.3,25.9,8.3c12.2,6.1,26.9,3.5,36.2-6.5
	c9.1-9.4,10.9-23.5,4.9-35.7c-4-8.1-11-12.8-18.5-16.9C-489.6,555.9-508.5,552.9-529.4,552.7z M-874.9,665.8c0-22.5,0-45,0-67.5
	c0-4.2-0.3-8.3-1-12.4c-2.9-17.4-15.6-30.5-31.8-32.7c-20.4-2.8-35.9,5.1-43.6,22.2c-3.2,7.1-4.3,14.6-4.3,22.4
	c0,44.6,0,89.3,0,133.9c-0.1,3.8,0.2,7.7,0.7,11.4c2.6,15.9,10.1,28.4,26.3,33.2c15.9,4.7,30.8,2.5,42.7-10.2
	c8.3-8.9,10.9-20,11-31.8C-874.8,711.5-874.9,688.6-874.9,665.8z M-728.1,383.9c-33.7-0.1-58.5,17.2-68.3,47.7
	c-4.5,14.3-5.2,29-3.7,43.9c4,38.8,33.3,64.8,72.3,63.7c32.6-0.9,53.8-21,56.4-53.4c1.5-18.7-7-32.8-23.3-37.8
	c-10.6-3.2-21.8-3.6-32.6-1c-10.5,2.4-15.5,10-15,21.1c0.4,9,7,16.1,16.7,17.8c1.8,0.3,3.7,0.2,5.5,0.4c2.3,0.3,4.3,1.2,4.9,3.6
	s-0.7,4.2-2.6,5.6c-1.5,1.1-3.2,1.8-5,2c-10.4,1.1-19.2-1.9-25.4-10.5c-8.8-12.2-9.3-33.8-1-46.5c6.3-9.6,15.4-13.8,26.9-12.7
	c5.3,0.5,9.9,2.5,14.5,4.9c7,3.6,14.1,4.1,20.9-0.1c13.4-8.1,13.7-27.1,0.7-36.6C-698.6,386.9-712.9,384-728.1,383.9L-728.1,383.9z
	 M-916.7,462.1c0,13.5,0,27,0,40.5c0,6-0.5,12,0.7,17.9c2.4,11.5,10.5,18.5,22,18.7c11.7,0.2,20.5-6.8,22.8-18.2
	c0.5-2.8,0.6-5.6,0.6-8.5c0.1-7.3,0-14.7,0.1-22c0-2.5,0.2-5.2,3.7-5.4c3.1-0.1,3.8,2,4.3,4.5c0.5,2.5,1,5.2,1.8,7.8
	c3.8,13.2,8.2,26.1,19.1,35.5c7,6,14.9,8.1,23.7,5c8.1-2.9,13.4-8.7,14.7-17.4c1.2-7.7-1.7-14.4-6.2-20.4
	c-5-6.6-10.3-13.1-14.3-20.4s-4-7.2,2-13c0.9-0.9,1.8-1.9,2.7-3c22.5-28,8.8-67.9-26.3-76.4c-15-3.6-30.2-2-45.3-2
	c-16.6,0-25.8,9.8-25.9,26.4C-916.7,428.5-916.7,445.3-916.7,462.1L-916.7,462.1z M-555.1,462L-555.1,462c0.1,18.3-0.2,36.6,0.2,55
	c0.2,12.4,9,21.3,20.7,22.2c12.8,1,22.2-6.2,24.5-19.1c1.7-9.6,0.4-19.3,0.8-28.9c0.1-2.6-0.6-5.7,3.4-6c3.7-0.3,4.2,2.6,4.7,5.2
	c1.7,8.7,4.3,17.1,8,25.1c3.5,7.7,8.2,14.5,15.2,19.4c13.2,9.2,31.6,2.9,35.3-12.2c2.3-9.2-1.2-17-6.8-24s-11.2-14.1-14.9-22.3
	c-1.4-3.2-1.1-5.5,1.6-7.9c13.9-12.5,17-28.7,14-46c-3.3-19.3-19.1-32.8-40.4-36c-14.6-2.2-29.3-1.5-43.9-0.7
	c-14.4,0.8-22.3,10.4-22.3,25C-555.1,427.7-555.1,444.9-555.1,462L-555.1,462z M-1124,538.2c9.4-0.2,18.1,0.5,26.7-1
	c18.2-3.2,31.6-12.8,37.1-30.7c5.6-18.1,2.6-34.6-12.7-47.4c-2.5-2.1-2.4-3.6-0.4-6.1c19.8-25.9,5.9-61.4-26.1-66.5
	c-15.4-2.5-30.9-1.7-46.3-0.8c-13.2,0.8-21.8,10.1-21.9,22.9c-0.2,35.5-0.2,70.9,0,106.4c0.1,12,7.8,20.2,19.5,22.4
	C-1139.9,538.9-1131.5,537.7-1124,538.2z M-931.5,450.2h-0.2c0-14.6,0.4-29.3-0.1-44c-0.3-11.3-8.2-19.8-18.4-21.2
	c-16-2.2-27.3,7.7-27.4,24.4c-0.1,24.3,0,48.6,0,73c0.1,2,0,4-0.3,6c-1,5.8-5.3,9.2-11.3,9.2s-9.7-2.9-10.9-8.9
	c-0.4-2.1-0.5-4.3-0.5-6.5c-0.1-25,0.2-50-0.2-74.9c-0.2-13.9-10.1-23-23.3-22.7c-13.2,0.3-22.6,9.5-22.7,23.4
	c-0.2,27.6-0.4,55.3,0.1,82.9c0.3,16.9,7.8,30.6,22.5,39.3c16.2,9.6,33.7,10.7,51.7,7c25.7-5.3,40.7-23.5,40.9-49.7
	C-931.5,475.2-931.5,462.7-931.5,450.2z M-660.2,461.5c0,16.8,0,33.6,0,50.5c0,16.2,8.9,25.6,25.2,26c15.8,0.4,31.7,0.3,47.5,0
	c12.9-0.2,21.5-8.7,21.8-20.7c0.3-12.4-7.7-21.4-20.1-22.1c-7.3-0.4-14.7-0.1-22-0.2c-6.2,0-7.9-1.6-7.9-7.5c0-6.3,1.3-7.6,8.1-7.7
	c4.7,0,9.3,0.1,14,0c12.6-0.4,20.2-7.9,19.9-19.5c-0.3-10.4-7.7-17.2-19.5-17.8c-5.3-0.3-10.7,0-16-0.1c-5.1-0.1-6.5-1.7-6.5-7.2
	c0-5.3,1.6-6.9,6.8-7c7.2-0.1,14.3,0.1,21.5-0.1c10.2-0.3,17.7-5.5,20.6-13.8c5.2-14.8-4.3-28.7-20.4-29.1
	c-15.7-0.4-31.3-0.3-47-0.1c-16.7,0.2-25.8,9.6-25.8,26.3S-660.2,444.8-660.2,461.5z"/>
<rect class="st0" width="1024" height="1024"/>
<path class="st1" d="M511.7,337.4H175.9c-1,0-2,0-3,0c-22.7,1.4-25.1-11.5-23.3-27.5c2.8-24.7,13.6-46.1,28.1-65.8
	c23.7-32.4,54.5-56.7,89.4-76.1c46.8-26,97.3-40.9,150-49c37.6-5.7,75.6-7.9,113.5-6.7c67.8,2,133.7,13.2,196.1,40.9
	c42.6,19,80.8,44.3,111.2,80.3c16.7,19.8,29.8,41.7,35.4,67.4c1.5,6.7,2.1,13.5,1.7,20.4c-0.6,9.2-6.2,15.1-15.4,15.9
	c-2.7,0.2-5.3,0.2-8,0.2L511.7,337.4z"/>
<path class="st1" d="M512.1,781.8h341.4c2.3-0.1,4.7,0,7,0.2c8.7,1,14.2,6.9,14.5,15.7c0.5,15.1-6.6,27.3-15.7,38.4
	c-17.8,21.9-41.5,35.1-67.3,44.9c-28.6,10.9-58.5,16.8-88.7,20.9c-44.9,6.2-90.1,8.3-135.5,9.4c-34.2,0.8-68.3,0.9-102.5,0.3
	c-37.5-0.7-74.9-2-112.2-5.8c-41.3-4.2-82.3-10.2-121.4-24.9c-25.4-9.6-48.5-22.9-66.2-44c-7.7-9.2-13.7-19.2-15.9-31.2
	c-2.8-15.5,3.8-23.8,19.5-23.8L512.1,781.8z"/>
<path class="st2" d="M662.1,645.5c0,23.3,0,46.6,0,70c0,11.3-2.2,21.9-9.9,30.6c-14.7,16.8-42,16.2-57-0.9
	c-8.5-9.7-13.3-21.4-19.2-32.6c-8.2-15.4-16-31-24.1-46.5c-1.2-2.3-2.3-5.3-5.7-4.5s-3.2,3.8-3.2,6.5c0,17.7,0.3,35.3-0.2,53
	c-0.4,13.9-5.8,25.8-18.6,32.7c-25.9,14-54.5-3.5-55.2-33.7c-0.4-18.5-0.1-37-0.1-55.5c0-30.3,0-60.6,0-90.9
	c0-10.4,2.4-20.2,9.2-28.3c15.1-18.1,43.6-17.2,59,1.6c5.7,7,9.7,15.1,13.8,23.1c9.3,18,18.5,36.1,27.9,54.1
	c0.6,1.4,1.5,2.6,2.5,3.7c2.5,2.4,5.6,1.5,6.4-1.8c0.3-1.6,0.4-3.3,0.3-5c0-16.1,0-32.3,0-48.5c-0.1-6.5,1.2-13,3.8-18.9
	c6.9-15.4,20.3-22.6,38.7-20.7c15.1,1.5,26.8,12.5,30.3,28.3c1,5.1,1.4,10.2,1.2,15.4L662.1,645.5z"/>
<path class="st2" d="M149.6,645c0-23.7,0-47.3,0-71c0-13,3.4-24.9,13.9-33.4c11.8-9.6,25.5-10.4,39.2-5.2
	c14,5.3,20.5,16.9,22.4,31.2c1.2,9.1,0.3,18.3,0.6,27.5c0.1,2.7-0.8,6,2.6,7.5c3.6,1.5,5.5-1.5,7.5-3.6c8.6-9.2,15-19.9,22-30.3
	c5-7.5,8.9-15.7,15-22.3c10-10.8,22.1-15.2,36.6-11.5c14.7,3.8,24.7,12.8,28.3,27.8c2.2,9.1,0.1,17.8-3.9,26.2
	c-8,16.7-21.2,29.3-34.4,41.8c-7.5,7.2-8,9.6-1.7,18.1c10.6,14.4,22.3,27.7,34.2,41c7.1,7.9,12.8,16.8,13.2,27.8
	c0.6,16-6.6,28-20,36.1c-13.6,8.2-27.6,7.3-41.2-0.7c-11.7-6.9-19.3-17.7-26.8-28.5c-8.6-12.3-16-25.3-22.1-39
	c-0.3-0.6-0.6-1.2-0.9-1.8c-1.2-2.2-2.8-3.9-5.5-3.2s-3,3-3,5.2c-0.1,9,0,18,0,27c0,5.8,0,11.6-1.3,17.4
	c-4.7,19.9-19.7,30.7-40.9,29.2c-18-1.3-31.9-15.4-33.2-34.6c-0.8-11.8-0.4-23.6-0.5-35.5C149.5,673.6,149.6,659.3,149.6,645z"/>
<path class="st2" d="M787.4,532.5c20.9,0.3,39.9,3.2,57.3,12.6c7.5,4.1,14.5,8.8,18.5,16.9c6,12.2,4.2,26.2-4.9,35.7
	c-9.3,10-24,12.6-36.2,6.5c-8.2-4-16.4-8-25.9-8.3c-22.2-0.7-39.2,11.3-44.6,32.8c-4.3,17-3.5,33.8,5.5,49.3
	c8,13.9,24.6,21.4,40.5,19c1.6-0.2,3.2-0.7,4.8-1.3c4.7-2,7.5-6,6.4-9.5c-1.3-4.5-5.2-5.2-9.2-5.3c-8.4-0.2-16.2-2.4-22.5-8.2
	c-15.9-14.5-10.6-41.5,10.2-47.6c20.6-6,41.7-5.3,61.4,3.9c17.4,8.1,25,23.4,26,41.9c2.4,46.2-28.6,81.6-74.8,86.2
	c-32.2,3.2-61.2-3.9-85.8-25.7c-17.6-15.6-27.5-35.7-31.5-58.7c-4.7-26.8-3.4-53.2,7.1-78.5c14.4-34.8,41.5-53.8,78-60.2
	C774.3,533,780.9,532.5,787.4,532.5z"/>
<path class="st2" d="M442,645.6c0,22.8,0.1,45.6,0,68.4c0,11.8-2.7,22.9-11,31.8c-11.9,12.7-26.8,14.9-42.7,10.2
	c-16.2-4.8-23.7-17.2-26.3-33.2c-0.5-3.8-0.8-7.6-0.7-11.4c-0.1-44.6-0.1-89.3,0-133.9c0-7.7,1-15.3,4.3-22.4
	c7.8-17.1,23.3-24.9,43.6-22.2c16.2,2.2,28.9,15.3,31.8,32.7c0.7,4.1,1,8.3,1,12.4C442,600.6,442,623.1,442,645.6z"/>
<path class="st2" d="M588.8,363.7c15.1,0,29.4,3,41.9,12c13,9.5,12.7,28.5-0.7,36.6c-6.9,4.2-14,3.7-20.9,0.1
	c-4.6-2.4-9.3-4.4-14.5-4.9c-11.5-1-20.6,3.1-26.9,12.7c-8.2,12.7-7.8,34.2,1,46.5c6.2,8.6,15,11.6,25.4,10.5c1.8-0.2,3.5-0.9,5-2
	c1.8-1.4,3.1-3.2,2.6-5.6s-2.6-3.4-4.9-3.6c-1.8-0.2-3.7-0.1-5.5-0.4c-9.7-1.7-16.2-8.8-16.7-17.8c-0.5-11,4.5-18.7,15-21.1
	c10.7-2.6,22-2.2,32.6,1c16.3,5,24.8,19.2,23.3,37.8c-2.6,32.5-23.8,52.5-56.4,53.4c-39,1.1-68.3-24.9-72.3-63.7
	c-1.5-15-0.9-29.6,3.7-43.9C530.3,380.9,555.1,363.6,588.8,363.7z"/>
<path class="st2" d="M400.2,441.9c0-16.8,0-33.6,0-50.5c0-16.6,9.3-26.3,25.9-26.4c15.1,0,30.3-1.7,45.3,2
	c35,8.5,48.8,48.5,26.3,76.4c-0.8,1.1-1.7,2.1-2.7,3c-5.9,5.8-5.9,5.8-2,13s9.3,13.8,14.3,20.4c4.5,6,7.4,12.7,6.2,20.4
	c-1.3,8.7-6.6,14.4-14.7,17.4c-8.8,3.2-16.7,1.1-23.7-5c-10.8-9.4-15.3-22.2-19.1-35.5c-0.7-2.6-1.3-5.2-1.8-7.8s-1.2-4.6-4.3-4.5
	c-3.5,0.2-3.7,2.9-3.7,5.4c-0.1,7.3,0,14.7-0.1,22c0.1,2.8-0.1,5.7-0.6,8.5c-2.4,11.4-11.2,18.4-22.8,18.2
	c-11.4-0.2-19.6-7.2-22-18.7c-1.2-6-0.7-12-0.7-17.9C400.1,468.9,400.2,455.4,400.2,441.9z M443.9,416.6c0,2.3,0.1,4.6,0,7
	c-0.3,4.8,2.2,6.6,6.6,6.5c1.5,0,3,0,4.5-0.1c5.3-0.6,8.8-3.9,10.2-9.5c1.4-5.7-0.2-11.7-4.1-14.4c-4.4-3.1-9.6-3.2-14.3-1.6
	c-4.5,1.5-2.4,6.3-2.8,9.7C443.9,415,443.9,415.8,443.9,416.6z"/>
<path class="st2" d="M761.8,441.8c0-17.1,0-34.3,0-51.4c0-14.5,7.9-24.2,22.3-25c14.6-0.8,29.3-1.5,43.9,0.7
	c21.2,3.2,37.1,16.7,40.4,36c3,17.3-0.2,33.5-14,46c-2.7,2.4-3,4.8-1.6,7.9c3.8,8.3,9.3,15.3,14.9,22.3s9.1,14.9,6.8,24
	c-3.8,15.1-22.1,21.4-35.3,12.2c-7-4.9-11.8-11.7-15.2-19.4c-3.7-8-6.3-16.5-8-25.1c-0.5-2.7-1-5.5-4.7-5.2c-4,0.3-3.2,3.5-3.4,6
	c-0.4,9.6,1,19.3-0.8,28.9c-2.3,12.8-11.7,20-24.5,19.1c-11.7-0.9-20.5-9.8-20.7-22.2C761.6,478.4,761.8,460.1,761.8,441.8
	L761.8,441.8z M805.1,416.7L805.1,416.7c0.1,2.7-0.1,5.3,0.1,8c-0.1,2.6,1.8,4.9,4.4,5.2c10.9,2.4,18.8-5,17.3-16.1
	c-1-7.2-6.4-10.7-15.6-10.2c-5.4,0.3-6.2,1.6-6.2,10.5L805.1,416.7z"/>
<path class="st2" d="M192.9,518c-7.5-0.5-15.9,0.7-24.1-0.9c-11.7-2.2-19.4-10.5-19.5-22.4c-0.3-35.4-0.3-70.9,0-106.4
	c0.1-12.8,8.7-22,21.9-22.9c15.4-0.9,31-1.7,46.3,0.8c32.1,5.2,45.9,40.7,26.1,66.5c-1.9,2.5-2.1,4,0.4,6.1
	c15.3,12.8,18.2,29.4,12.6,47.4c-5.6,17.9-19,27.5-37.1,30.7C211,518.5,202.3,517.8,192.9,518z M190.1,468.7c0,2.5,0.1,5,0,7.5
	c-0.1,4.5,1.9,6.9,6.5,6.8c1.5,0,3,0.1,4.5,0c5.8-0.3,10.2-2.8,12.3-8.4c2.1-5.8,2-11.6-2.4-16.3c-4.7-5-11.2-5.1-17.2-3.6
	c-5.5,1.4-3.3,6.8-3.7,10.6C190,466.4,190,467.6,190.1,468.7L190.1,468.7z M197.8,399.7c-3.8-0.2-7.5,0.3-7.6,5.6
	c-0.1,5.1-0.1,10.3,0,15.4c0,2.6,1.4,4.7,4,5c5.3,0.6,10.8,1,14.7-3.8s4.4-10.3,1.8-15.9C208.2,400.8,203.4,399.6,197.8,399.7z"/>
<path class="st2" d="M385.3,430c0,12.5,0.1,25,0,37.5c-0.2,26.2-15.1,44.4-40.9,49.7c-18,3.7-35.5,2.6-51.7-7
	c-14.8-8.8-22.2-22.5-22.5-39.3c-0.5-27.6-0.3-55.3-0.1-82.9c0.1-13.9,9.5-23.2,22.7-23.4s23,8.8,23.3,22.7c0.5,25,0.2,50,0.2,75
	c0,2.2,0.1,4.3,0.5,6.5c1.1,5.9,4.9,8.9,10.9,8.9s10.3-3.4,11.2-9.2c0.2-2,0.3-4,0.3-6c0-24.3-0.1-48.6,0-72.9
	c0.1-16.7,11.4-26.6,27.4-24.4c10.1,1.4,18,9.9,18.4,21.2c0.5,14.6,0.1,29.3,0.1,44L385.3,430z"/>
<path class="st2" d="M656.7,441.3c0-16.7,0-33.3,0-50s9.1-26.1,25.8-26.3c15.7-0.2,31.3-0.3,47,0.1c16.1,0.4,25.6,14.2,20.4,29.1
	c-2.9,8.2-10.5,13.4-20.6,13.8c-7.2,0.2-14.3,0-21.5,0.1c-5.2,0.1-6.7,1.7-6.8,7c0,5.5,1.3,7.1,6.5,7.2c5.3,0.1,10.7-0.2,16,0.1
	c11.9,0.6,19.2,7.4,19.5,17.8c0.3,11.6-7.2,19-19.9,19.5c-4.7,0.2-9.3,0-14,0c-6.8,0-8.1,1.3-8.1,7.7c0,5.8,1.7,7.4,7.9,7.5
	c7.3,0,14.7-0.2,22,0.2c12.4,0.7,20.5,9.7,20.1,22.1c-0.3,12-8.8,20.4-21.8,20.6c-15.8,0.3-31.7,0.4-47.5,0
	c-16.3-0.4-25.1-9.8-25.2-26C656.7,474.9,656.7,458.1,656.7,441.3z"/>
</svg>
