<svg id="Layer_1" data-name="Layer 1" xmlns="http://www.w3.org/2000/svg" viewBox="0 0 1024 1024"><defs><style>.cls-1{fill:#fe000d;}.cls-2{fill:#feb40a;}</style></defs><rect class="cls-1" width="1024" height="1024"/><path class="cls-2" d="M512.17,436.75c3.11-10,5.73-19.37,8.91-28.53,10.57-30.41,22.81-60.05,41.47-86.6,9.91-14.09,21-27.06,36.14-35.8,22.33-12.91,44-11.52,64.95,3.44,19.5,13.93,32,33.55,43.11,54.15a393.1,393.1,0,0,1,28,66.46,756.54,756.54,0,0,1,23.33,91.73c3.78,20.2,7.36,40.41,10,60.8,1.79,14,3.73,28,5,42.13,1.47,16.28,3.14,32.52,4.07,48.85.78,13.72,1.26,27.45,2,41.15.71,12.61,1.27,25.21,1.38,37.83,0,4-.51,7.92-.59,11.89,0,2.32-1.24,2.71-3.17,2.71-20.16,0-40.32-.06-60.48,0-3.34,0-3.22-2-3.24-4.24-.1-14.82-.06-29.65-.4-44.48-.4-17.75-.68-35.53-1.89-53.24-.79-11.59-.63-23.22-1.86-34.77-2.06-19.25-2.35-38.64-4.85-57.86-1.73-13.24-2.31-26.62-4.17-39.83-2.16-15.3-4.18-30.62-6.72-45.88-2.75-16.55-5.63-33.07-9.24-49.45-4.82-21.9-10.39-43.61-19-64.43-4.29-10.41-9-20.61-16-29.54-13.9-17.64-28.74-15.45-41,.85-13.07,17.32-19.76,37.56-26.09,58-6.53,21.09-11.29,42.61-15.42,64.25-2.58,13.55-4.29,27.27-6.32,40.93-1.72,11.54-3.85,23.06-4.82,34.67-.65,7.73-1.7,15.41-2.2,23.15-.63,9.88-1.9,19.71-2.89,29.57-.54,5.43-.77,10.92-1,16.32-.31,8.79-.88,17.58-1.45,26.32-2,30.71-1.7,61.43-1.87,92.16,0,3.43-1.39,4.2-4.46,4.19-19.66-.08-39.32-.11-59,0-3.64,0-4.46-1.44-4.41-4.75.39-22.15-.27-44.3-1.13-66.43-.73-18.69-1.69-37.38-3-56-1.36-19.14-2.82-38.29-5.08-57.34-2.23-18.79-4.68-37.57-7.58-56.29-4.56-29.47-10.08-58.72-18.45-87.31-6.07-20.74-12.77-41.39-25.71-59.26a45.72,45.72,0,0,0-13.56-12.84,18.26,18.26,0,0,0-21.22,2c-10.1,8.39-16.38,19.47-21.24,31.27C347.27,380.22,339.21,415.36,333,451c-3.52,20.18-6.59,40.41-9.05,60.75-2.36,19.52-4.47,39-6,58.66s-3.08,39.29-4.13,59c-.88,16.58-1.25,33.16-2,49.74-.94,20.95-.73,41.9-.82,62.85,0,3.88-1,5.13-5,5.09q-29-.3-58,0c-3.62,0-5-.83-4.89-4.69.46-18.31.3-36.64,1.08-54.93.56-12.93,1-25.9,2.06-38.79q2.1-27.12,5-54.21c2.14-20.06,4.67-40.09,8.1-59.92C269.72,474.33,283.23,415,309,359.13c8.54-18.46,18.22-36.37,31.54-51.79,12.23-14.16,25.95-26.78,45.75-29.66,15.92-2.32,30.06,2.39,42.93,11.22,19,13,31.89,31.24,43.21,50.84,15.77,27.3,26.22,56.78,35.87,86.61C509.39,429.6,509.46,433.19,512.17,436.75Z" transform="translate(0 0)"/></svg>